<svg width="200" height="200" xmlns="http://www.w3.org/2000/svg" preserveAspectRatio="xMidYMid meet">
    <path d="m34.5114,100.1332l0,-32l32,32l-32,0z" fill="#ff7f00" stroke="#000000" stroke-opacity="0" stroke-width="5" transform="rotate(-88.9505 50.5114 84.1332)"/>
    <rect fill="#ff7f00" height="77" stroke-opacity="0" stroke-width="5" width="39" x="57.72" y="61.36"/>
    <rect fill="#ff7f00" height="28" stroke-opacity="0" stroke-width="5" width="57" x="32.72" y="94.36"/>
    <g transform="translate(0.000000,200.000000) scale(0.100000,-0.100000)">
        <path d="m1207,1786c-51,-19 -102,-60 -300,-242l-167,-154l-218,0c-336,0 -322,17 -322,-393c0,-314 1,-319 58,-362c25,-18 46,-20 256,-23l229,-4l181,-165c100,-90 201,-177 225,-193c53,-36 109,-49 122,-29c5,8 9,359 9,781c0,684 -2,768 -16,782c-8,9 -16,16 -17,16c-1,-1 -19,-7 -40,-14zm-89,-1048l-3,-261l-156,151l-157,152l-221,0l-221,0l0,225l0,225l223,0l222,1l80,76c44,42 114,108 155,146l75,71l3,-262c1,-144 1,-380 0,-524z"/>
        <path d="m1675,1781c-46,-29 -183,-172 -194,-204c-12,-32 6,-80 34,-91c51,-19 75,-7 169,84c107,104 125,134 106,181c-12,28 -43,49 -73,49c-7,0 -25,-9 -42,-19z"/>
        <path d="m1512,1064c-49,-34 -44,-102 9,-129c33,-18 183,-21 225,-5c57,22 72,83 29,125c-23,23 -31,25 -132,25c-84,0 -114,-4 -131,-16z"/>
        <path d="m1492,510c-15,-14 -22,-33 -22,-56c0,-31 12,-47 96,-134c52,-54 108,-103 124,-110c59,-25 120,26 105,88c-3,16 -50,71 -109,130c-91,90 -108,102 -138,102c-21,0 -43,-8 -56,-20z"/>
    </g>
</svg>
