<svg xmlns="http://www.w3.org/2000/svg" viewBox="0 0 245 245" xml:space="preserve">
        <path d="M105,82.5h120c11.046,0,20-8.954,20-20s-8.954-20-20-20H105c-11.046,0-20,8.954-20,20S93.954,82.5,105,82.5z"/>
        <path d="M225,102.5H105c-11.046,0-20,8.954-20,20s8.954,20,20,20h120c11.046,0,20-8.954,20-20S236.046,102.5,225,102.5z"/>
        <path d="M225,162.5H105c-11.046,0-20,8.954-20,20s8.954,20,20,20h120c11.046,0,20-8.954,20-20S236.046,162.5,225,162.5z"/>
        <path d="M30,37.5H20c-11.046,0-20,8.954-20,20v10c0,11.046,8.954,20,20,20h10c11.046,0,20-8.954,20-20v-10C50,46.454,41.046,37.5,30,37.5z"/>
        <path d="M30,97.5H20c-11.046,0-20,8.954-20,20v10c0,11.046,8.954,20,20,20h10c11.046,0,20-8.954,20-20v-10C50,106.454,41.046,97.5,30,97.5z"/>
        <path d="M30,157.5H20c-11.046,0-20,8.954-20,20v10c0,11.046,8.954,20,20,20h10c11.046,0,20-8.954,20-20v-10C50,166.454,41.046,157.5,30,157.5z"/>
</svg>