<svg xmlns="http://www.w3.org/2000/svg" viewBox="0 0 1100 356" width="1100" height="356">
    <path fill="white" d="m298.381,8.755c-13.271,10.534 -11.352,9.485 -18.7,10.217c-9.453,0.941 -11.118,1.897 -5.498,3.155c3.625,0.811 3.618,0.817 -2.924,2.859c-7.182,2.241 -6.818,2.718 2.074,2.718c10.087,0 10.493,0.384 5.7,5.377c-1.897,1.977 -9.613,12.03 -17.146,22.341c-13.272,18.165 -33.626,45.826 -47.837,65.009c-7.932,10.708 -7.229,10.202 -9.25,6.663c-9.256,-16.206 8.286,-44.088 27.095,-43.067l2.607,0.142l8.052,-10.818c9.2,-12.36 8.838,-11.221 6.207,-19.57c-9.828,-31.189 -41.746,-47.684 -68.26,-35.277c-32.958,15.422 -44.21,61.36 -23.353,95.342c4.328,7.051 7.759,14.386 6.729,14.386c-0.085,0 -1.313,-0.518 -2.728,-1.152c-5.607,-2.509 -17.154,-1.89 -31.9,1.71c-4.413,1.078 -6.639,1.396 -7.497,1.07c-2.478,-0.943 -16.258,-16.81 -18.109,-20.852c-7.354,-16.063 11.656,-43.266 41.344,-59.161c8.163,-4.37 1.89,-4.229 -11.959,0.27c-27.846,9.045 -48.075,30.517 -49.481,52.522c-0.724,11.323 8.789,31.04 20.622,42.744c9.124,9.023 13.451,9.765 24.416,4.186c10.817,-5.504 14.493,-5.271 21.967,1.393c3.671,3.274 3.652,3.32 -0.984,2.338c-13.846,-2.933 -19.569,-0.01 -33.053,16.885c-6.295,7.887 -9.467,10.981 -12.736,12.422c-3.878,1.709 -3.658,1.817 -19.34,-9.485c-17.502,-12.615 -23.37,-14.475 -37.696,-11.952c-20.571,3.623 -35.26,10.042 -43.424,18.974c-4.672,5.113 -3.677,6.607 2.369,3.557c10.855,-5.475 30.751,-10.618 41.014,-10.602c10.98,0.018 16.42,2.957 29.256,15.804c23.344,23.364 32.355,23.8 50.145,2.427c14.118,-16.963 19.207,-19.427 30.098,-14.571c7.418,3.308 6.157,3.66 14.96,-4.183c8.843,-7.878 8.814,-7.639 -0.626,5.114c-6.449,8.713 -6.662,8.852 -14.294,9.348c-8.427,0.548 -8.666,0.89 -7.148,10.23c1.37,8.431 0.056,10.482 -7.135,11.141c-4.982,0.457 -5.438,1.214 -4.134,6.866c0.665,2.882 0.24,4.02 -1.283,3.435c-1.291,-0.495 -2.296,-3.081 -4.419,-11.365c-3.301,-12.882 -3.581,-12.616 -9.154,8.75c-2.347,8.997 -4.395,16.774 -4.55,17.282c-0.415,1.355 0.643,1.13 2.853,-0.606c4.165,-3.27 4.693,-2.667 1.642,1.874c-7.404,11.019 -25.569,37.384 -46.756,67.863c-30.132,43.348 -30.19,43.521 -4.041,12.117c28.863,-34.663 50.909,-60.296 61.597,-71.617l3.985,-4.222l2.091,2.184c3.35,3.498 3.618,5.515 1.488,11.187c-5.289,14.081 -20.929,32.65 -46.422,55.117c-7.233,6.374 -8.542,7.766 -7.303,7.766c1.952,0 60.321,-48.769 69.424,-58.006c3.555,-3.607 3.659,-3.786 3.082,-5.315c-0.55,-1.457 -0.476,-1.668 0.939,-2.676c3.3,-2.35 1.528,-5.624 -7.133,-13.176c-10.094,-8.8 -11.076,-12.12 -3.585,-12.12c4.602,0 5.157,-0.79 4.27,-6.068c-1.156,-6.878 0.766,-8.763 9.453,-9.271c8.946,-0.523 9.194,-0.848 7.45,-9.764l-1.156,-5.91l1.127,-2.304c0.926,-1.89 11.264,-14.966 14.129,-17.871c0.43,-0.435 -1.116,2.454 -3.434,6.42c-7.179,12.283 -7.077,11.934 -5.57,19.008c1.978,9.289 -2.012,14.802 -11.231,15.522c-6.309,0.492 -6.139,0.389 -5.771,3.493c0.418,3.533 -0.473,6.911 -2.357,8.927c-2.113,2.262 -2.05,2.4 2.9,6.393c5.317,4.289 4.354,4.298 8.128,-0.076l3.139,-3.638l0.339,11.949c0.186,6.572 0.488,14.957 0.671,18.632c0.284,5.714 0.192,7.073 -0.636,9.374c-0.832,2.315 -0.877,3.006 -0.322,4.927c2.149,7.446 4.308,16.161 4.313,17.407c0.017,5.008 12.288,-5.919 15.366,-13.682c1.129,-2.847 1.224,-3.904 1.293,-14.418c0.095,-14.378 2.877,-31.314 6.673,-40.618l0.74,-1.812l1.983,6.743c4.785,16.275 6.393,28.279 5.024,37.488c-1.379,9.27 3.118,19.098 11.581,25.31c4.583,3.365 5.024,3.22 5.733,-1.886c0.335,-2.41 1.463,-7.09 2.508,-10.402c1.848,-5.858 1.88,-6.094 1.15,-8.707c-1.285,-4.599 -1.41,-6.275 -0.791,-10.616c0.33,-2.314 0.746,-9.947 0.925,-16.963l0.326,-12.756l2.8,3.257c9.163,10.659 9.056,14.81 -1.269,49.168c-5.188,17.263 -2.447,27.615 12.726,48.064c7.551,10.177 22.654,26.606 24.458,26.606c1.832,0 0.117,-2.679 -5.363,-8.378c-10.676,-11.102 -15.273,-19.952 -17.553,-33.798c-1.801,-10.931 -0.778,-17.987 5.589,-38.563c5.395,-17.435 5.525,-18.112 5.513,-28.76c-0.019,-16.417 -5.217,-27.749 -16.874,-36.792c-5.604,-4.346 -5.633,-4.392 -3.055,-4.818c9.755,-1.612 11.263,-0.141 19.45,18.988c10.273,23.999 20.512,37.714 38.013,50.919c24.559,18.53 55.769,7.141 52.472,-19.147c-1.225,-9.775 -8.72,-26.625 -12.776,-28.722c-2.145,-1.109 -2.408,-0.634 -1.277,2.309c8.581,22.318 6.675,34.164 -6.012,37.368c-7.578,1.913 -12.772,0.136 -20.987,-7.181c-14.939,-13.306 -22.756,-25.327 -32.598,-50.127c-10.653,-26.844 -12.074,-28.474 -25.74,-29.524c-7.126,-0.548 -7.155,-0.589 -2.131,-2.952c9.781,-4.602 16.431,-1.446 28.912,13.719c18.721,22.745 26.48,22.498 51.508,-1.637c12.828,-12.371 16.701,-14.64 26.159,-15.326c10.263,-0.745 28.494,3.523 42.305,9.904c8.084,3.734 8.827,2.906 2.895,-3.226c-9.297,-9.611 -24.276,-16.21 -43.154,-19.012c-15.324,-2.274 -18.85,-0.916 -43.368,16.698c-11.952,8.586 -12.719,8.361 -26.228,-7.694c-15.064,-17.903 -18.529,-19.683 -32.479,-16.69c-4.995,1.072 -5.004,1.039 -0.722,-2.565c7.617,-6.41 10.736,-6.641 20.546,-1.522c14.009,7.311 22.326,3.73 34.475,-14.843c19.98,-30.545 13.967,-53.283 -20.142,-76.164c-5.025,-3.371 -5.454,-3.363 -8.072,0.146c-2.873,3.852 -2.766,4.405 1.562,8.04c13.453,11.299 22.377,30.161 19.034,40.229c-2.173,6.539 -17.47,24.293 -20.399,23.674c-0.689,-0.146 -5.256,-1.16 -10.15,-2.255c-8.354,-1.868 -9.07,-1.949 -11.715,-1.314c-2.493,0.598 -2.975,0.572 -4.19,-0.224c-2,-1.31 -5.072,-0.939 -5.89,0.711c-1.126,2.272 -3.203,2.974 -4.957,1.677c-1.483,-1.096 -1.484,-1.096 -3.761,-0.063c-1.253,0.569 -2.753,1.04 -3.333,1.048c-0.581,0.008 -3.786,0.962 -7.124,2.12c-6.272,2.177 -9.843,2.712 -9.339,1.401c0.15,-0.391 5.469,-7.575 11.82,-15.964c31.334,-41.385 56.498,-75.157 58.568,-78.601c2.688,-4.472 3.542,-5.02 4.61,-2.955c0.814,1.574 2.618,8.377 3.211,12.109c0.775,4.872 2.186,0.964 2.345,-6.491l0.067,-3.166l0.828,1.583c2.95,5.639 3.598,4.82 2.539,-3.205c-1.171,-8.863 -1.074,-9.895 1.405,-15.003c2.079,-4.286 9.434,-20.989 9.434,-21.425c0,-1.01 -2.965,1.027 -12.437,8.546m-47.36,38.411c-0.27,0.704 5.302,4.021 6.755,4.021c2.922,0 2.532,-3.468 -0.441,-3.916c-5.338,-0.804 -6.042,-0.815 -6.314,-0.105m-1.479,47.293c-5.219,7.045 -5.628,7.863 -6.508,12.989c-0.454,2.646 -1.284,6.143 -1.845,7.773c-0.648,1.883 -0.826,3.082 -0.488,3.29c0.655,0.405 0.187,1.1 4.331,-6.431c7.75,-14.088 10.843,-26.171 4.51,-17.621m-152.192,70.317c-3.577,9.758 -3.729,10.926 -1.549,11.919c1.132,0.516 1.312,0.447 1.523,-0.588c0.44,-2.157 1.357,-9.38 1.357,-10.693c0,-1.351 -0.909,-1.787 -1.331,-0.638m203.442,0.69c0,1.664 1.156,11.502 1.384,11.782c0.482,0.592 2.837,-1.701 2.837,-2.761c0,-1.03 -1.61,-6.269 -2.903,-9.447c-0.556,-1.367 -1.318,-1.12 -1.318,0.426m-151.979,15.206c-5.671,1.561 -9.603,4.648 -12.617,9.904c-1.977,3.449 -2.005,4.338 -0.263,8.516c1.78,4.272 1.677,4.2 5.005,3.504c3.863,-0.807 3.831,-0.735 2.607,-5.987c-2.081,-8.922 2.822,-15.206 11.846,-15.183c3.604,0.009 5.031,-0.271 5.031,-0.987c0,-0.713 -8.815,-0.536 -11.609,0.233m-63.605,28.599c-0.972,12.968 1.922,28.372 7.8,41.521c1.941,4.341 1.383,4.45 6.464,-1.256c5.034,-5.652 5.094,-5.884 2.691,-10.456c-3.666,-6.977 -6.176,-16.234 -7.478,-27.583c-0.278,-2.428 -0.377,-2.545 -4.126,-4.882c-5.058,-3.152 -4.91,-3.226 -5.351,2.656m223.418,-2.701c-3.81,2.516 -3.82,2.534 -4.414,8.733c-0.751,7.845 -4.139,18.779 -7.869,25.4c-1.801,3.198 -1.53,3.818 4.116,9.394c4.389,4.334 4.52,4.416 5.003,3.166c0.273,-0.706 1.211,-3.073 2.084,-5.259c5.04,-12.623 6.516,-20.513 6.319,-33.789c-0.169,-11.349 0,-11.103 -5.239,-7.645m-243.095,21.619c-8.783,9.529 -13.795,32.194 -9.189,41.559c3.804,7.735 13.529,13.589 22.629,13.622l2.19,0.007l8.16,-11.741c11.505,-16.555 11.777,-17.188 4.833,-11.263c-11.627,9.921 -26.617,8.338 -30.082,-3.177c-2.044,-6.791 -0.043,-19.208 4.542,-28.198c2.015,-3.948 0.24,-4.414 -3.083,-0.809m91.007,38.644c-7.255,6.696 -7.102,6.354 -5.343,11.907c9.273,29.281 5.603,48.89 -12.729,68.014c-5.832,6.083 -6.957,7.657 -6.095,8.519c2.518,2.519 30.355,-31.423 36.316,-44.28c3.314,-7.149 4.304,-16.653 2.586,-24.823c-1.128,-5.361 -7.337,-24.577 -8.015,-24.802c-0.322,-0.108 -3.346,2.352 -6.72,5.465m-34.374,-3.105c-1.599,1.175 -11.871,12.764 -11.859,13.379c0.027,1.327 2.959,3.724 4.33,3.54c1.37,-0.185 13.069,-12.696 13.069,-13.977c0,-1.337 -4.484,-3.718 -5.54,-2.942m149.076,2.558c-1.596,1.046 -5.871,3.319 -9.499,5.051c-3.628,1.732 -6.935,3.325 -7.35,3.539c-1.828,0.944 -7.056,20.656 -5.809,21.903c0.965,0.965 14.85,-2.776 21.424,-5.772c6.783,-3.091 19.176,-12.118 19.176,-13.967c0,-0.705 -13.197,-12.387 -14.149,-12.526c-0.49,-0.071 -2.197,0.726 -3.793,1.772m-135.092,15.789c-9.509,7.601 -9.712,7.977 -5.367,9.926c8.456,3.796 20.689,6.11 20.662,3.909c-0.019,-1.554 -4.494,-17.878 -5.352,-19.525c-0.781,-1.498 -1.378,-1.156 -9.943,5.69"/>
    <text fill="white" font-size="120" font-weight="bold" transform="matrix(1.27262 0 0 2.49098 -98.633 -247.852)" x="385.9841" xml:space="preserve" y="211.80145">SHENHAI</text>
</svg>